<svg width="938" height="861" viewBox="0 0 938 861" fill="none" xmlns="http://www.w3.org/2000/svg">
<path d="M894.667 433.333C894.667 445.115 904.218 454.667 916 454.667C927.782 454.667 937.333 445.115 937.333 433.333C937.333 421.551 927.782 412 916 412C904.218 412 894.667 421.551 894.667 433.333ZM521.167 838.833C521.167 850.615 530.718 860.167 542.5 860.167C554.282 860.167 563.833 850.615 563.833 838.833C563.833 827.051 554.282 817.5 542.5 817.5C530.718 817.5 521.167 827.051 521.167 838.833ZM875 473.333L872.207 470.47L872.132 470.543L872.062 470.619L875 473.333ZM867.355 625.308V629.308H871.159L871.35 625.509L867.355 625.308ZM295.626 625.308C295.626 637.091 305.177 646.642 316.959 646.642C328.741 646.642 338.292 637.091 338.292 625.308C338.292 613.526 328.741 603.975 316.959 603.975C305.177 603.975 295.626 613.526 295.626 625.308ZM697.201 515.572L694.516 512.607L693.201 513.798V515.572H697.201ZM846.624 380.316L849.309 383.281L850.624 382.09V380.316H846.624ZM846.624 21.3333H850.624V17.3333H846.624V21.3333ZM341.233 21.3333C341.233 33.1154 350.784 42.6667 362.566 42.6667C374.348 42.6667 383.9 33.1154 383.9 21.3333C383.9 9.55126 374.348 1.90735e-06 362.566 1.90735e-06C350.784 1.90735e-06 341.233 9.55126 341.233 21.3333ZM723.711 262.923C723.711 274.705 733.263 284.257 745.045 284.257C756.827 284.257 766.378 274.705 766.378 262.923C766.378 251.141 756.827 241.59 745.045 241.59C733.263 241.59 723.711 251.141 723.711 262.923ZM897.57 128.518H901.57V124.518H897.57V128.518ZM876.237 328.242C876.237 340.024 885.788 349.576 897.57 349.576C909.353 349.576 918.904 340.024 918.904 328.242C918.904 316.46 909.353 306.909 897.57 306.909C885.788 306.909 876.237 316.46 876.237 328.242ZM493.169 467.935L490.614 464.857L489.169 466.056V467.935H493.169ZM493.169 737.597H489.169V745.822L495.639 740.743L493.169 737.597ZM614.876 625.308C614.876 637.091 624.427 646.642 636.209 646.642C647.992 646.642 657.543 637.091 657.543 625.308C657.543 613.526 647.992 603.975 636.209 603.975C624.427 603.975 614.876 613.526 614.876 625.308ZM471.835 222.942C471.835 234.724 481.387 244.275 493.169 244.275C504.951 244.275 514.502 234.724 514.502 222.942C514.502 211.16 504.951 201.609 493.169 201.609C481.387 201.609 471.835 211.16 471.835 222.942ZM375.9 556.167L375.839 552.168L373.138 552.21L372.168 554.73L375.9 556.167ZM894.667 547.833C894.667 559.615 904.218 569.167 916 569.167C927.782 569.167 937.333 559.615 937.333 547.833C937.333 536.051 927.782 526.5 916 526.5C904.218 526.5 894.667 536.051 894.667 547.833ZM680.003 515.572V519.572H684.003V515.572H680.003ZM354.567 399.328C354.567 411.11 364.118 420.661 375.9 420.661C387.682 420.661 397.234 411.11 397.234 399.328C397.234 387.546 387.682 377.994 375.9 377.994C364.118 377.994 354.567 387.546 354.567 399.328ZM102.466 399.328V395.328H98.4656V399.328H102.466ZM247.375 562.937C247.375 574.72 256.926 584.271 268.708 584.271C280.49 584.271 290.041 574.72 290.041 562.937C290.041 551.155 280.49 541.604 268.708 541.604C256.926 541.604 247.375 551.155 247.375 562.937ZM268.708 709.246L266.251 712.402L267.335 713.246H268.708V709.246ZM451.667 709.246C451.667 721.028 461.218 730.579 473 730.579C484.782 730.579 494.333 721.028 494.333 709.246C494.333 697.464 484.782 687.912 473 687.912C461.218 687.912 451.667 697.464 451.667 709.246ZM316.959 757.162H312.959V761.162H316.959V757.162ZM846.022 757.162C846.022 768.944 855.573 778.496 867.355 778.496C879.137 778.496 888.688 768.944 888.688 757.162C888.688 745.38 879.137 735.829 867.355 735.829C855.573 735.829 846.022 745.38 846.022 757.162ZM171.4 399.328C171.4 411.11 180.951 420.661 192.733 420.661C204.515 420.661 214.066 411.11 214.066 399.328C214.066 387.546 204.515 377.994 192.733 377.994C180.951 377.994 171.4 387.546 171.4 399.328ZM102.466 492.228H98.4656V492.928L98.7034 493.587L102.466 492.228ZM172.047 556.167L169.34 559.113L169.52 559.278L169.72 559.421L172.047 556.167ZM146.471 614.089L142.709 615.447L143.101 616.535L144.014 617.245L146.471 614.089ZM375.9 515.572H371.9V519.572H375.9V515.572ZM916 433.333L913.207 430.47L872.207 470.47L875 473.333L877.793 476.196L918.793 436.196L916 433.333ZM875 473.333L871.005 473.132L863.36 625.108L867.355 625.308L871.35 625.509L878.995 473.534L875 473.333ZM867.355 625.308V621.308H316.959V625.308V629.308H867.355V625.308ZM875 473.333L872.062 470.619L694.262 663.119L697.201 665.833L700.139 668.547L877.938 476.047L875 473.333ZM697.201 665.833L694.219 663.167L539.518 836.167L542.5 838.833L545.482 841.5L700.182 668.5L697.201 665.833ZM697.201 665.833H701.201V515.572H697.201H693.201V665.833H697.201ZM697.201 515.572L699.885 518.538L849.309 383.281L846.624 380.316L843.94 377.35L694.516 512.607L697.201 515.572ZM846.624 380.316H850.624V21.3333H846.624H842.624V380.316H846.624ZM846.624 21.3333V17.3333H614.961V21.3333V25.3333H846.624V21.3333ZM614.961 21.3333H610.961V128.518H614.961H618.961V21.3333H614.961ZM614.961 128.518H610.961V366.857H614.961H618.961V128.518H614.961ZM614.961 128.518V132.518H745.045V128.518V124.518H614.961V128.518ZM745.045 128.518V132.518H897.57V128.518V124.518H745.045V128.518ZM897.57 128.518H893.57V328.242H897.57H901.57V128.518H897.57ZM614.961 366.857L612.406 363.779L490.614 464.857L493.169 467.935L495.723 471.013L617.515 369.935L614.961 366.857ZM493.169 467.935H489.169V737.597H493.169H497.169V467.935H493.169ZM493.169 737.597L495.639 740.743L638.679 628.455L636.209 625.308L633.74 622.162L490.699 734.45L493.169 737.597ZM614.961 21.3333V17.3333H488.763V21.3333V25.3333H614.961V21.3333ZM488.763 21.3333V17.3333H362.566V21.3333V25.3333H488.763V21.3333ZM488.763 21.3333L484.764 21.4207L489.17 223.029L493.169 222.942L497.168 222.855L492.763 21.246L488.763 21.3333ZM375.9 556.167L375.962 560.167L916.062 551.833L916 547.833L915.938 543.834L375.839 552.168L375.9 556.167ZM614.961 366.857L617.457 369.982L682.5 318.015L680.003 314.89L677.506 311.765L612.464 363.732L614.961 366.857ZM680.003 314.89L682.5 318.015L747.542 266.048L745.045 262.923L742.548 259.798L677.506 311.765L680.003 314.89ZM680.003 314.89H676.003V515.572H680.003H684.003V314.89H680.003ZM268.708 709.246V713.246L316.959 713.246V709.246V705.246L268.708 705.246V709.246ZM316.959 709.246V713.246L473 713.246V709.246V705.246L316.959 705.246V709.246ZM316.959 709.246H312.959V757.162H316.959H320.959V709.246H316.959ZM316.959 757.162V761.162H867.355V757.162V753.162H316.959V757.162ZM316.959 709.246L320.692 710.683L379.633 557.605L375.9 556.167L372.168 554.73L313.226 707.808L316.959 709.246ZM102.466 399.328V403.328H192.733V399.328V395.328H102.466V399.328ZM102.466 399.328H98.4656V492.228H102.466H106.466V399.328H102.466ZM102.466 492.228L99.7591 495.173L169.34 559.113L172.047 556.167L174.753 553.222L105.172 489.283L102.466 492.228ZM268.708 709.246H272.708V625.308H268.708H264.708V709.246H268.708ZM268.708 625.308H272.708V562.937H268.708H264.708V625.308H268.708ZM172.047 556.167L169.72 559.421L266.381 628.562L268.708 625.308L271.035 622.055L174.374 552.914L172.047 556.167ZM102.466 492.228L98.7034 493.587L142.709 615.447L146.471 614.089L150.233 612.73L106.228 490.869L102.466 492.228ZM146.471 614.089L144.014 617.245L266.251 712.402L268.708 709.246L271.165 706.089L148.928 610.933L146.471 614.089ZM680.003 515.572V511.572H375.9V515.572V519.572H680.003V515.572ZM375.9 515.572H379.9V399.328H375.9H371.9V515.572H375.9Z" fill="#85AB20" fill-opacity="0.2"/>
<path d="M250.233 141.69C186.331 194.964 147.118 214.879 72.3295 236.141L61.8456 333.871V432.257C80.7309 625.737 164.067 746.108 250.233 787.102C348.851 744.796 453.908 651.523 471.058 432.257V188.26C357.715 188.785 309.212 178.737 250.233 141.69Z" stroke="#85AB20" stroke-opacity="0.1" stroke-width="20"/>
<path d="M222.107 527.911C222.107 527.911 222.107 537.833 222.107 493.069C222.107 448.305 309.069 447.331 309.069 493.069C309.069 538.808 309.069 527.911 309.069 527.911M222.107 527.911H309.069M222.107 527.911C213.412 527.911 206.413 535.049 206.582 543.742L207.361 583.56C207.627 597.174 218.739 608.071 232.356 608.071H300.877C314.684 608.071 325.877 596.878 325.877 583.071V544.719C325.877 535.436 318.352 527.911 309.069 527.911" stroke="#85AB20" stroke-opacity="0.1" stroke-width="10"/>
</svg>
